<svg width="256" height="128" viewBox="0 0 256 128" fill="none" xmlns="http://www.w3.org/2000/svg">
<path d="M95 15.5C97.4853 15.5 99.5 17.5147 99.5 20V108C99.5 110.485 97.4853 112.5 95 112.5H32C29.5147 112.5 27.5 110.485 27.5 108V34.6211L46.6211 15.5H95Z" fill="#FFF1E2" stroke="black" stroke-width="3"/>
<path d="M46.5 67L46.5 56C46.5 55.1716 47.1716 54.5 48 54.5H56.5V46C56.5 45.1716 57.1716 44.5 58 44.5L69 44.5C69.8284 44.5 70.5 45.1716 70.5 46V54.5L79 54.5C79.8284 54.5 80.5 55.1716 80.5 56V67C80.5 67.8284 79.8284 68.5 79 68.5H70.5V77C70.5 77.8284 69.8284 78.5 69 78.5H58C57.1716 78.5 56.5 77.8284 56.5 77V68.5H48C47.1716 68.5 46.5 67.8284 46.5 67Z" fill="#10B981" stroke="#059669"/>
<path d="M54.5 29.5H89.5M38.5 90.5H89.5M38.5 102.5H89.5" stroke="black" stroke-width="3" stroke-linecap="round"/>
<path d="M123.63 63H118.185C117.615 63 117.21 62.895 116.97 62.685C116.76 62.445 116.655 62.115 116.655 61.695C116.655 61.395 116.73 60.81 116.88 59.94C117.06 59.07 117.24 58.155 117.42 57.195L122.46 32.265C123.78 31.935 125.145 31.695 126.555 31.545C127.995 31.395 129.36 31.32 130.65 31.32C131.94 31.32 133.2 31.455 134.43 31.725C135.66 31.995 136.755 32.46 137.715 33.12C138.675 33.78 139.44 34.665 140.01 35.775C140.61 36.885 140.91 38.28 140.91 39.96C140.91 41.52 140.67 43.05 140.19 44.55C139.71 46.05 138.975 47.4 137.985 48.6C137.025 49.77 135.825 50.73 134.385 51.48C132.945 52.2 131.265 52.56 129.345 52.56C128.625 52.56 127.935 52.53 127.275 52.47C126.645 52.38 126.15 52.29 125.79 52.2L123.63 63ZM126.915 46.395C127.515 46.515 128.1 46.575 128.67 46.575C129.57 46.575 130.32 46.38 130.92 45.99C131.55 45.6 132.045 45.105 132.405 44.505C132.795 43.875 133.065 43.185 133.215 42.435C133.395 41.655 133.485 40.905 133.485 40.185C133.485 38.085 132.36 37.035 130.11 37.035C129.78 37.035 129.495 37.065 129.255 37.125C129.015 37.155 128.85 37.185 128.76 37.215L126.915 46.395ZM146.849 55.35C146.399 56.73 145.964 58.095 145.544 59.445C145.154 60.795 144.824 61.98 144.554 63H139.244C138.644 63 138.224 62.895 137.984 62.685C137.744 62.475 137.624 62.205 137.624 61.875C137.624 61.485 137.669 61.11 137.759 60.75C137.849 60.39 137.969 60 138.119 59.58C139.769 54.6 141.554 49.86 143.474 45.36C145.424 40.86 147.584 36.345 149.954 31.815H157.154C157.754 31.815 158.204 31.965 158.504 32.265C158.804 32.535 159.014 32.955 159.134 33.525C159.314 34.545 159.479 35.715 159.629 37.035C159.809 38.355 159.944 39.765 160.034 41.265C160.154 42.765 160.244 44.34 160.304 45.99C160.394 47.64 160.439 49.29 160.439 50.94C160.439 52.92 160.409 54.9 160.349 56.88C160.289 58.86 160.199 60.9 160.079 63H154.319C153.779 63 153.404 62.88 153.194 62.64C152.984 62.37 152.879 61.995 152.879 61.515L152.924 60.75C152.954 60.39 152.999 59.955 153.059 59.445C153.119 58.905 153.164 58.38 153.194 57.87C153.254 57.36 153.299 56.88 153.329 56.43C153.359 55.95 153.374 55.59 153.374 55.35H146.849ZM153.464 37.125C152.324 39.585 151.364 41.88 150.584 44.01C149.834 46.11 149.174 48.03 148.604 49.77H153.599C153.659 49.17 153.704 48.48 153.734 47.7C153.764 46.89 153.779 45.975 153.779 44.955C153.779 43.875 153.749 42.645 153.689 41.265C153.659 39.855 153.584 38.475 153.464 37.125ZM170.695 63H165.25C164.68 63 164.275 62.895 164.035 62.685C163.825 62.445 163.72 62.115 163.72 61.695C163.72 61.395 163.795 60.81 163.945 59.94C164.125 59.07 164.305 58.155 164.485 57.195L169.525 32.265C170.845 31.935 172.21 31.695 173.62 31.545C175.06 31.395 176.425 31.32 177.715 31.32C179.005 31.32 180.265 31.455 181.495 31.725C182.725 31.995 183.82 32.46 184.78 33.12C185.74 33.78 186.505 34.665 187.075 35.775C187.675 36.885 187.975 38.28 187.975 39.96C187.975 41.52 187.735 43.05 187.255 44.55C186.775 46.05 186.04 47.4 185.05 48.6C184.09 49.77 182.89 50.73 181.45 51.48C180.01 52.2 178.33 52.56 176.41 52.56C175.69 52.56 175 52.53 174.34 52.47C173.71 52.38 173.215 52.29 172.855 52.2L170.695 63ZM173.98 46.395C174.58 46.515 175.165 46.575 175.735 46.575C176.635 46.575 177.385 46.38 177.985 45.99C178.615 45.6 179.11 45.105 179.47 44.505C179.86 43.875 180.13 43.185 180.28 42.435C180.46 41.655 180.55 40.905 180.55 40.185C180.55 38.085 179.425 37.035 177.175 37.035C176.845 37.035 176.56 37.065 176.32 37.125C176.08 37.155 175.915 37.185 175.825 37.215L173.98 46.395ZM193.959 31.815H210.114C211.044 31.815 211.509 32.205 211.509 32.985C211.509 33.135 211.479 33.405 211.419 33.795C211.359 34.155 211.299 34.515 211.239 34.875L210.654 38.025H200.034L198.909 43.965H206.424C207.354 43.965 207.819 44.355 207.819 45.135C207.819 45.285 207.789 45.555 207.729 45.945C207.669 46.305 207.609 46.665 207.549 47.025L206.919 50.175H197.649L196.389 56.79H205.524C206.454 56.79 206.919 57.18 206.919 57.96C206.919 58.11 206.889 58.38 206.829 58.77C206.769 59.13 206.709 59.49 206.649 59.85L206.064 63H189.774C189.204 63 188.799 62.895 188.559 62.685C188.349 62.445 188.244 62.115 188.244 61.695C188.244 61.395 188.334 60.81 188.514 59.94C188.694 59.07 188.859 58.155 189.009 57.195L193.959 31.815ZM217.849 63H212.359C211.369 63 210.874 62.55 210.874 61.65C210.874 61.56 210.889 61.395 210.919 61.155C210.979 60.885 211.024 60.63 211.054 60.39C211.114 60.12 211.159 59.88 211.189 59.67C211.249 59.46 211.279 59.325 211.279 59.265L216.679 32.265C217.849 31.965 219.109 31.74 220.459 31.59C221.809 31.41 223.159 31.32 224.509 31.32C226.099 31.32 227.539 31.47 228.829 31.77C230.149 32.07 231.274 32.565 232.204 33.255C233.134 33.945 233.854 34.845 234.364 35.955C234.874 37.035 235.129 38.355 235.129 39.915C235.129 42.165 234.574 44.16 233.464 45.9C232.384 47.61 230.899 48.96 229.009 49.95C229.339 50.67 229.684 51.585 230.044 52.695C230.434 53.805 230.794 54.975 231.124 56.205C231.454 57.405 231.739 58.605 231.979 59.805C232.219 61.005 232.369 62.07 232.429 63H226.444C225.844 63 225.394 62.895 225.094 62.685C224.794 62.475 224.614 62.085 224.554 61.515C224.344 59.715 224.059 57.93 223.699 56.16C223.339 54.39 222.934 52.89 222.484 51.66H220.099L217.849 63ZM221.224 45.99H223.519C223.969 45.99 224.434 45.87 224.914 45.63C225.394 45.39 225.844 45.045 226.264 44.595C226.684 44.115 227.029 43.53 227.299 42.84C227.569 42.12 227.704 41.31 227.704 40.41C227.704 38.16 226.624 37.035 224.464 37.035C224.134 37.035 223.834 37.065 223.564 37.125C223.294 37.155 223.099 37.185 222.979 37.215L221.224 45.99Z" fill="#10B981"/>
<path d="M129.575 98.475C129.388 97.355 129.178 96.2233 128.945 95.08C128.712 93.9133 128.455 92.7233 128.175 91.51H118.515C118.212 92.77 117.932 94.0183 117.675 95.255C117.442 96.4917 117.22 97.74 117.01 99H115.61C115.213 99 115.038 98.825 115.085 98.475C115.552 95.6517 116.112 92.9917 116.765 90.495C117.418 87.975 118.083 85.7 118.76 83.67C119.437 81.6167 120.09 79.8317 120.72 78.315C121.35 76.775 121.887 75.585 122.33 74.745H124.01C124.173 74.745 124.302 74.7683 124.395 74.815C124.512 74.8617 124.628 75.0017 124.745 75.235C125.188 76.1917 125.725 77.4633 126.355 79.05C127.008 80.6367 127.662 82.4683 128.315 84.545C128.968 86.5983 129.598 88.85 130.205 91.3C130.812 93.75 131.325 96.3167 131.745 99H130.135C129.832 99 129.645 98.825 129.575 98.475ZM123.345 76.775C122.435 78.8517 121.618 80.9633 120.895 83.11C120.172 85.2567 119.518 87.4617 118.935 89.725H127.72C127.16 87.5083 126.507 85.315 125.76 83.145C125.037 80.9517 124.232 78.8283 123.345 76.775ZM135.249 81.395H136.684C137.034 81.395 137.209 81.57 137.209 81.92V99H135.774C135.424 99 135.249 98.825 135.249 98.475V81.395ZM136.264 77.965C135.774 77.965 135.412 77.86 135.179 77.65C134.945 77.44 134.829 77.0667 134.829 76.53C134.829 75.9933 134.945 75.62 135.179 75.41C135.412 75.2 135.774 75.095 136.264 75.095C136.754 75.095 137.115 75.2 137.349 75.41C137.582 75.62 137.699 75.9933 137.699 76.53C137.699 77.0667 137.582 77.44 137.349 77.65C137.115 77.86 136.754 77.965 136.264 77.965ZM153.179 83.67C152.572 83.39 151.931 83.1567 151.254 82.97C150.601 82.7833 149.831 82.69 148.944 82.69C147.987 82.69 147.171 82.83 146.494 83.11C145.817 83.3667 145.257 83.7983 144.814 84.405C144.394 84.9883 144.079 85.7583 143.869 86.715C143.682 87.6483 143.589 88.7917 143.589 90.145C143.589 92.6417 143.904 94.52 144.534 95.78C145.164 97.0167 146.354 97.635 148.104 97.635C148.734 97.635 149.306 97.565 149.819 97.425C150.332 97.2617 150.799 97.0633 151.219 96.83C151.639 96.5967 152.012 96.34 152.339 96.06C152.666 95.78 152.946 95.5117 153.179 95.255V83.67ZM153.844 99C153.494 99 153.319 98.825 153.319 98.475L153.249 97.075C152.689 97.635 151.966 98.16 151.079 98.65C150.216 99.1167 149.107 99.35 147.754 99.35C146.564 99.35 145.572 99.1283 144.779 98.685C143.986 98.2183 143.344 97.5883 142.854 96.795C142.387 95.9783 142.061 95.01 141.874 93.89C141.687 92.77 141.594 91.5333 141.594 90.18C141.594 86.89 142.201 84.5333 143.414 83.11C144.627 81.6867 146.389 80.975 148.699 80.975C149.866 80.975 150.799 81.1033 151.499 81.36C152.222 81.6167 152.782 81.8383 153.179 82.025V73.87H154.614C154.964 73.87 155.139 74.045 155.139 74.395V99H153.844Z" fill="#059669"/>
</svg>
