<svg width="256" height="64" viewBox="0 0 256 64" fill="none" xmlns="http://www.w3.org/2000/svg">
<path d="M52.63 46H47.185C46.615 46 46.21 45.895 45.97 45.685C45.76 45.445 45.655 45.115 45.655 44.695C45.655 44.395 45.73 43.81 45.88 42.94C46.06 42.07 46.24 41.155 46.42 40.195L51.46 15.265C52.78 14.935 54.145 14.695 55.555 14.545C56.995 14.395 58.36 14.32 59.65 14.32C60.94 14.32 62.2 14.455 63.43 14.725C64.66 14.995 65.755 15.46 66.715 16.12C67.675 16.78 68.44 17.665 69.01 18.775C69.61 19.885 69.91 21.28 69.91 22.96C69.91 24.52 69.67 26.05 69.19 27.55C68.71 29.05 67.975 30.4 66.985 31.6C66.025 32.77 64.825 33.73 63.385 34.48C61.945 35.2 60.265 35.56 58.345 35.56C57.625 35.56 56.935 35.53 56.275 35.47C55.645 35.38 55.15 35.29 54.79 35.2L52.63 46ZM55.915 29.395C56.515 29.515 57.1 29.575 57.67 29.575C58.57 29.575 59.32 29.38 59.92 28.99C60.55 28.6 61.045 28.105 61.405 27.505C61.795 26.875 62.065 26.185 62.215 25.435C62.395 24.655 62.485 23.905 62.485 23.185C62.485 21.085 61.36 20.035 59.11 20.035C58.78 20.035 58.495 20.065 58.255 20.125C58.015 20.155 57.85 20.185 57.76 20.215L55.915 29.395ZM75.8489 38.35C75.3989 39.73 74.9639 41.095 74.5439 42.445C74.1539 43.795 73.8239 44.98 73.5539 46H68.2439C67.6439 46 67.2239 45.895 66.9839 45.685C66.7439 45.475 66.6239 45.205 66.6239 44.875C66.6239 44.485 66.6689 44.11 66.7589 43.75C66.8489 43.39 66.9689 43 67.1189 42.58C68.7689 37.6 70.5539 32.86 72.4739 28.36C74.4239 23.86 76.5839 19.345 78.9539 14.815H86.1539C86.7539 14.815 87.2039 14.965 87.5039 15.265C87.8039 15.535 88.0139 15.955 88.1339 16.525C88.3139 17.545 88.4789 18.715 88.6289 20.035C88.8089 21.355 88.9439 22.765 89.0339 24.265C89.1539 25.765 89.2439 27.34 89.3039 28.99C89.3939 30.64 89.4389 32.29 89.4389 33.94C89.4389 35.92 89.4089 37.9 89.3489 39.88C89.2889 41.86 89.1989 43.9 89.0789 46H83.3189C82.7789 46 82.4039 45.88 82.1939 45.64C81.9839 45.37 81.8789 44.995 81.8789 44.515L81.9239 43.75C81.9539 43.39 81.9989 42.955 82.0589 42.445C82.1189 41.905 82.1639 41.38 82.1939 40.87C82.2539 40.36 82.2989 39.88 82.3289 39.43C82.3589 38.95 82.3739 38.59 82.3739 38.35H75.8489ZM82.4639 20.125C81.3239 22.585 80.3639 24.88 79.5839 27.01C78.8339 29.11 78.1739 31.03 77.6039 32.77H82.5989C82.6589 32.17 82.7039 31.48 82.7339 30.7C82.7639 29.89 82.7789 28.975 82.7789 27.955C82.7789 26.875 82.7489 25.645 82.6889 24.265C82.6589 22.855 82.5839 21.475 82.4639 20.125ZM99.6954 46H94.2504C93.6804 46 93.2754 45.895 93.0354 45.685C92.8254 45.445 92.7204 45.115 92.7204 44.695C92.7204 44.395 92.7954 43.81 92.9454 42.94C93.1254 42.07 93.3054 41.155 93.4854 40.195L98.5254 15.265C99.8454 14.935 101.21 14.695 102.62 14.545C104.06 14.395 105.425 14.32 106.715 14.32C108.005 14.32 109.265 14.455 110.495 14.725C111.725 14.995 112.82 15.46 113.78 16.12C114.74 16.78 115.505 17.665 116.075 18.775C116.675 19.885 116.975 21.28 116.975 22.96C116.975 24.52 116.735 26.05 116.255 27.55C115.775 29.05 115.04 30.4 114.05 31.6C113.09 32.77 111.89 33.73 110.45 34.48C109.01 35.2 107.33 35.56 105.41 35.56C104.69 35.56 104 35.53 103.34 35.47C102.71 35.38 102.215 35.29 101.855 35.2L99.6954 46ZM102.98 29.395C103.58 29.515 104.165 29.575 104.735 29.575C105.635 29.575 106.385 29.38 106.985 28.99C107.615 28.6 108.11 28.105 108.47 27.505C108.86 26.875 109.13 26.185 109.28 25.435C109.46 24.655 109.55 23.905 109.55 23.185C109.55 21.085 108.425 20.035 106.175 20.035C105.845 20.035 105.56 20.065 105.32 20.125C105.08 20.155 104.915 20.185 104.825 20.215L102.98 29.395ZM122.959 14.815H139.114C140.044 14.815 140.509 15.205 140.509 15.985C140.509 16.135 140.479 16.405 140.419 16.795C140.359 17.155 140.299 17.515 140.239 17.875L139.654 21.025H129.034L127.909 26.965H135.424C136.354 26.965 136.819 27.355 136.819 28.135C136.819 28.285 136.789 28.555 136.729 28.945C136.669 29.305 136.609 29.665 136.549 30.025L135.919 33.175H126.649L125.389 39.79H134.524C135.454 39.79 135.919 40.18 135.919 40.96C135.919 41.11 135.889 41.38 135.829 41.77C135.769 42.13 135.709 42.49 135.649 42.85L135.064 46H118.774C118.204 46 117.799 45.895 117.559 45.685C117.349 45.445 117.244 45.115 117.244 44.695C117.244 44.395 117.334 43.81 117.514 42.94C117.694 42.07 117.859 41.155 118.009 40.195L122.959 14.815ZM146.849 46H141.359C140.369 46 139.874 45.55 139.874 44.65C139.874 44.56 139.889 44.395 139.919 44.155C139.979 43.885 140.024 43.63 140.054 43.39C140.114 43.12 140.159 42.88 140.189 42.67C140.249 42.46 140.279 42.325 140.279 42.265L145.679 15.265C146.849 14.965 148.109 14.74 149.459 14.59C150.809 14.41 152.159 14.32 153.509 14.32C155.099 14.32 156.539 14.47 157.829 14.77C159.149 15.07 160.274 15.565 161.204 16.255C162.134 16.945 162.854 17.845 163.364 18.955C163.874 20.035 164.129 21.355 164.129 22.915C164.129 25.165 163.574 27.16 162.464 28.9C161.384 30.61 159.899 31.96 158.009 32.95C158.339 33.67 158.684 34.585 159.044 35.695C159.434 36.805 159.794 37.975 160.124 39.205C160.454 40.405 160.739 41.605 160.979 42.805C161.219 44.005 161.369 45.07 161.429 46H155.444C154.844 46 154.394 45.895 154.094 45.685C153.794 45.475 153.614 45.085 153.554 44.515C153.344 42.715 153.059 40.93 152.699 39.16C152.339 37.39 151.934 35.89 151.484 34.66H149.099L146.849 46ZM150.224 28.99H152.519C152.969 28.99 153.434 28.87 153.914 28.63C154.394 28.39 154.844 28.045 155.264 27.595C155.684 27.115 156.029 26.53 156.299 25.84C156.569 25.12 156.704 24.31 156.704 23.41C156.704 21.16 155.624 20.035 153.464 20.035C153.134 20.035 152.834 20.065 152.564 20.125C152.294 20.155 152.099 20.185 151.979 20.215L150.224 28.99Z" fill="#10B981"/>
<path d="M181.575 42.475C181.388 41.355 181.178 40.2233 180.945 39.08C180.712 37.9133 180.455 36.7233 180.175 35.51H170.515C170.212 36.77 169.932 38.0183 169.675 39.255C169.442 40.4917 169.22 41.74 169.01 43H167.61C167.213 43 167.038 42.825 167.085 42.475C167.552 39.6517 168.112 36.9917 168.765 34.495C169.418 31.975 170.083 29.7 170.76 27.67C171.437 25.6167 172.09 23.8317 172.72 22.315C173.35 20.775 173.887 19.585 174.33 18.745H176.01C176.173 18.745 176.302 18.7683 176.395 18.815C176.512 18.8617 176.628 19.0017 176.745 19.235C177.188 20.1917 177.725 21.4633 178.355 23.05C179.008 24.6367 179.662 26.4683 180.315 28.545C180.968 30.5983 181.598 32.85 182.205 35.3C182.812 37.75 183.325 40.3167 183.745 43H182.135C181.832 43 181.645 42.825 181.575 42.475ZM175.345 20.775C174.435 22.8517 173.618 24.9633 172.895 27.11C172.172 29.2567 171.518 31.4617 170.935 33.725H179.72C179.16 31.5083 178.507 29.315 177.76 27.145C177.037 24.9517 176.232 22.8283 175.345 20.775ZM187.249 25.395H188.684C189.034 25.395 189.209 25.57 189.209 25.92V43H187.774C187.424 43 187.249 42.825 187.249 42.475V25.395ZM188.264 21.965C187.774 21.965 187.412 21.86 187.179 21.65C186.945 21.44 186.829 21.0667 186.829 20.53C186.829 19.9933 186.945 19.62 187.179 19.41C187.412 19.2 187.774 19.095 188.264 19.095C188.754 19.095 189.115 19.2 189.349 19.41C189.582 19.62 189.699 19.9933 189.699 20.53C189.699 21.0667 189.582 21.44 189.349 21.65C189.115 21.86 188.754 21.965 188.264 21.965ZM205.179 27.67C204.572 27.39 203.931 27.1567 203.254 26.97C202.601 26.7833 201.831 26.69 200.944 26.69C199.987 26.69 199.171 26.83 198.494 27.11C197.817 27.3667 197.257 27.7983 196.814 28.405C196.394 28.9883 196.079 29.7583 195.869 30.715C195.682 31.6483 195.589 32.7917 195.589 34.145C195.589 36.6417 195.904 38.52 196.534 39.78C197.164 41.0167 198.354 41.635 200.104 41.635C200.734 41.635 201.306 41.565 201.819 41.425C202.332 41.2617 202.799 41.0633 203.219 40.83C203.639 40.5967 204.012 40.34 204.339 40.06C204.666 39.78 204.946 39.5117 205.179 39.255V27.67ZM205.844 43C205.494 43 205.319 42.825 205.319 42.475L205.249 41.075C204.689 41.635 203.966 42.16 203.079 42.65C202.216 43.1167 201.107 43.35 199.754 43.35C198.564 43.35 197.572 43.1283 196.779 42.685C195.986 42.2183 195.344 41.5883 194.854 40.795C194.387 39.9783 194.061 39.01 193.874 37.89C193.687 36.77 193.594 35.5333 193.594 34.18C193.594 30.89 194.201 28.5333 195.414 27.11C196.627 25.6867 198.389 24.975 200.699 24.975C201.866 24.975 202.799 25.1033 203.499 25.36C204.222 25.6167 204.782 25.8383 205.179 26.025V17.87H206.614C206.964 17.87 207.139 18.045 207.139 18.395V43H205.844Z" fill="#059669"/>
<path d="M216 35V24C216 23.4477 216.448 23 217 23L226 23V14C226 13.4477 226.448 13 227 13L238 13C238.552 13 239 13.4477 239 14V23L248 23C248.552 23 249 23.4477 249 24V35C249 35.5523 248.552 36 248 36H239V45C239 45.5523 238.552 46 238 46L227 46C226.448 46 226 45.5523 226 45V36H217C216.448 36 216 35.5523 216 35Z" fill="#10B981" stroke="#059669" stroke-width="2"/>
<path d="M36 7.25C38.6234 7.25 40.75 9.37665 40.75 12V46C40.75 48.6234 38.6234 50.75 36 50.75H10C7.37665 50.75 5.25 48.6234 5.25 46V22.2422L19.665 7.25H36Z" fill="#FFF1E2" stroke="black" stroke-width="2.5"/>
<path d="M24.44 21.8533H35.1733M11.3333 30.76H35.1733M11.3333 38.84H35.1733" stroke="black" stroke-width="3" stroke-linecap="round"/>
</svg>
