<svg width="256" height="128" viewBox="0 0 256 128" fill="none" xmlns="http://www.w3.org/2000/svg">
<path d="M95 15.5C97.4853 15.5 99.5 17.5147 99.5 20V108C99.5 110.485 97.4853 112.5 95 112.5H32C29.5147 112.5 27.5 110.485 27.5 108V34.6211L46.6211 15.5H95Z" fill="#FFF1E2" stroke="black" stroke-width="3"/>
<path d="M46.5 67L46.5 56C46.5 55.1716 47.1716 54.5 48 54.5H56.5V46C56.5 45.1716 57.1716 44.5 58 44.5L69 44.5C69.8284 44.5 70.5 45.1716 70.5 46V54.5L79 54.5C79.8284 54.5 80.5 55.1716 80.5 56V67C80.5 67.8284 79.8284 68.5 79 68.5H70.5V77C70.5 77.8284 69.8284 78.5 69 78.5H58C57.1716 78.5 56.5 77.8284 56.5 77V68.5H48C47.1716 68.5 46.5 67.8284 46.5 67Z" fill="#10B981" stroke="#059669"/>
<path d="M54.5 29.5H89.5M38.5 90.5H89.5M38.5 102.5H89.5" stroke="black" stroke-width="3" stroke-linecap="round"/>
<path d="M121.704 66H117.348C116.892 66 116.568 65.916 116.376 65.748C116.208 65.556 116.124 65.292 116.124 64.956C116.124 64.716 116.184 64.248 116.304 63.552C116.448 62.856 116.592 62.124 116.736 61.356L120.768 41.412C121.824 41.148 122.916 40.956 124.044 40.836C125.196 40.716 126.288 40.656 127.32 40.656C128.352 40.656 129.36 40.764 130.344 40.98C131.328 41.196 132.204 41.568 132.972 42.096C133.74 42.624 134.352 43.332 134.808 44.22C135.288 45.108 135.528 46.224 135.528 47.568C135.528 48.816 135.336 50.04 134.952 51.24C134.568 52.44 133.98 53.52 133.188 54.48C132.42 55.416 131.46 56.184 130.308 56.784C129.156 57.36 127.812 57.648 126.276 57.648C125.7 57.648 125.148 57.624 124.62 57.576C124.116 57.504 123.72 57.432 123.432 57.36L121.704 66ZM124.332 52.716C124.812 52.812 125.28 52.86 125.736 52.86C126.456 52.86 127.056 52.704 127.536 52.392C128.04 52.08 128.436 51.684 128.724 51.204C129.036 50.7 129.252 50.148 129.372 49.548C129.516 48.924 129.588 48.324 129.588 47.748C129.588 46.068 128.688 45.228 126.888 45.228C126.624 45.228 126.396 45.252 126.204 45.3C126.012 45.324 125.88 45.348 125.808 45.372L124.332 52.716ZM140.279 59.88C139.919 60.984 139.571 62.076 139.235 63.156C138.923 64.236 138.659 65.184 138.443 66H134.195C133.715 66 133.379 65.916 133.187 65.748C132.995 65.58 132.899 65.364 132.899 65.1C132.899 64.788 132.935 64.488 133.007 64.2C133.079 63.912 133.175 63.6 133.295 63.264C134.615 59.28 136.043 55.488 137.579 51.888C139.139 48.288 140.867 44.676 142.763 41.052H148.523C149.003 41.052 149.363 41.172 149.603 41.412C149.843 41.628 150.011 41.964 150.107 42.42C150.251 43.236 150.383 44.172 150.503 45.228C150.647 46.284 150.755 47.412 150.827 48.612C150.923 49.812 150.995 51.072 151.043 52.392C151.115 53.712 151.151 55.032 151.151 56.352C151.151 57.936 151.127 59.52 151.079 61.104C151.031 62.688 150.959 64.32 150.863 66H146.255C145.823 66 145.523 65.904 145.355 65.712C145.187 65.496 145.103 65.196 145.103 64.812L145.139 64.2C145.163 63.912 145.199 63.564 145.247 63.156C145.295 62.724 145.331 62.304 145.355 61.896C145.403 61.488 145.439 61.104 145.463 60.744C145.487 60.36 145.499 60.072 145.499 59.88H140.279ZM145.571 45.3C144.659 47.268 143.891 49.104 143.267 50.808C142.667 52.488 142.139 54.024 141.683 55.416H145.679C145.727 54.936 145.763 54.384 145.787 53.76C145.811 53.112 145.823 52.38 145.823 51.564C145.823 50.7 145.799 49.716 145.751 48.612C145.727 47.484 145.667 46.38 145.571 45.3ZM159.356 66H155C154.544 66 154.22 65.916 154.028 65.748C153.86 65.556 153.776 65.292 153.776 64.956C153.776 64.716 153.836 64.248 153.956 63.552C154.1 62.856 154.244 62.124 154.388 61.356L158.42 41.412C159.476 41.148 160.568 40.956 161.696 40.836C162.848 40.716 163.94 40.656 164.972 40.656C166.004 40.656 167.012 40.764 167.996 40.98C168.98 41.196 169.856 41.568 170.624 42.096C171.392 42.624 172.004 43.332 172.46 44.22C172.94 45.108 173.18 46.224 173.18 47.568C173.18 48.816 172.988 50.04 172.604 51.24C172.22 52.44 171.632 53.52 170.84 54.48C170.072 55.416 169.112 56.184 167.96 56.784C166.808 57.36 165.464 57.648 163.928 57.648C163.352 57.648 162.8 57.624 162.272 57.576C161.768 57.504 161.372 57.432 161.084 57.36L159.356 66ZM161.984 52.716C162.464 52.812 162.932 52.86 163.388 52.86C164.108 52.86 164.708 52.704 165.188 52.392C165.692 52.08 166.088 51.684 166.376 51.204C166.688 50.7 166.904 50.148 167.024 49.548C167.168 48.924 167.24 48.324 167.24 47.748C167.24 46.068 166.34 45.228 164.54 45.228C164.276 45.228 164.048 45.252 163.856 45.3C163.664 45.324 163.532 45.348 163.46 45.372L161.984 52.716ZM177.967 41.052H190.891C191.635 41.052 192.007 41.364 192.007 41.988C192.007 42.108 191.983 42.324 191.935 42.636C191.887 42.924 191.839 43.212 191.791 43.5L191.323 46.02H182.827L181.927 50.772H187.939C188.683 50.772 189.055 51.084 189.055 51.708C189.055 51.828 189.031 52.044 188.983 52.356C188.935 52.644 188.887 52.932 188.839 53.22L188.335 55.74H180.919L179.911 61.032H187.219C187.963 61.032 188.335 61.344 188.335 61.968C188.335 62.088 188.311 62.304 188.263 62.616C188.215 62.904 188.167 63.192 188.119 63.48L187.651 66H174.619C174.163 66 173.839 65.916 173.647 65.748C173.479 65.556 173.395 65.292 173.395 64.956C173.395 64.716 173.467 64.248 173.611 63.552C173.755 62.856 173.887 62.124 174.007 61.356L177.967 41.052ZM197.079 66H192.687C191.895 66 191.499 65.64 191.499 64.92C191.499 64.848 191.511 64.716 191.535 64.524C191.583 64.308 191.619 64.104 191.643 63.912C191.691 63.696 191.727 63.504 191.751 63.336C191.799 63.168 191.823 63.06 191.823 63.012L196.143 41.412C197.079 41.172 198.087 40.992 199.167 40.872C200.247 40.728 201.327 40.656 202.407 40.656C203.679 40.656 204.831 40.776 205.863 41.016C206.919 41.256 207.819 41.652 208.563 42.204C209.307 42.756 209.883 43.476 210.291 44.364C210.699 45.228 210.903 46.284 210.903 47.532C210.903 49.332 210.459 50.928 209.571 52.32C208.707 53.688 207.519 54.768 206.007 55.56C206.271 56.136 206.547 56.868 206.835 57.756C207.147 58.644 207.435 59.58 207.699 60.564C207.963 61.524 208.191 62.484 208.383 63.444C208.575 64.404 208.695 65.256 208.743 66H203.955C203.475 66 203.115 65.916 202.875 65.748C202.635 65.58 202.491 65.268 202.443 64.812C202.275 63.372 202.047 61.944 201.759 60.528C201.471 59.112 201.147 57.912 200.787 56.928H198.879L197.079 66ZM199.779 52.392H201.615C201.975 52.392 202.347 52.296 202.731 52.104C203.115 51.912 203.475 51.636 203.811 51.276C204.147 50.892 204.423 50.424 204.639 49.872C204.855 49.296 204.963 48.648 204.963 47.928C204.963 46.128 204.099 45.228 202.371 45.228C202.107 45.228 201.867 45.252 201.651 45.3C201.435 45.324 201.279 45.348 201.183 45.372L199.779 52.392Z" fill="#10B981"/>
<path d="M126.46 89.58C126.311 88.684 126.143 87.7787 125.956 86.864C125.769 85.9307 125.564 84.9787 125.34 84.008H117.612C117.369 85.016 117.145 86.0147 116.94 87.004C116.753 87.9933 116.576 88.992 116.408 90H115.288C114.971 90 114.831 89.86 114.868 89.58C115.241 87.3213 115.689 85.1933 116.212 83.196C116.735 81.18 117.267 79.36 117.808 77.736C118.349 76.0933 118.872 74.6653 119.376 73.452C119.88 72.22 120.309 71.268 120.664 70.596H122.008C122.139 70.596 122.241 70.6147 122.316 70.652C122.409 70.6893 122.503 70.8013 122.596 70.988C122.951 71.7533 123.38 72.7707 123.884 74.04C124.407 75.3093 124.929 76.7747 125.452 78.436C125.975 80.0787 126.479 81.88 126.964 83.84C127.449 85.8 127.86 87.8533 128.196 90H126.908C126.665 90 126.516 89.86 126.46 89.58ZM121.476 72.22C120.748 73.8813 120.095 75.5707 119.516 77.288C118.937 79.0053 118.415 80.7693 117.948 82.58H124.976C124.528 80.8067 124.005 79.052 123.408 77.316C122.829 75.5613 122.185 73.8627 121.476 72.22ZM130.999 75.916H132.147C132.427 75.916 132.567 76.056 132.567 76.336V90H131.419C131.139 90 130.999 89.86 130.999 89.58V75.916ZM131.811 73.172C131.419 73.172 131.13 73.088 130.943 72.92C130.756 72.752 130.663 72.4533 130.663 72.024C130.663 71.5947 130.756 71.296 130.943 71.128C131.13 70.96 131.419 70.876 131.811 70.876C132.203 70.876 132.492 70.96 132.679 71.128C132.866 71.296 132.959 71.5947 132.959 72.024C132.959 72.4533 132.866 72.752 132.679 72.92C132.492 73.088 132.203 73.172 131.811 73.172ZM145.343 77.736C144.858 77.512 144.344 77.3253 143.803 77.176C143.28 77.0267 142.664 76.952 141.955 76.952C141.19 76.952 140.536 77.064 139.995 77.288C139.454 77.4933 139.006 77.8387 138.651 78.324C138.315 78.7907 138.063 79.4067 137.895 80.172C137.746 80.9187 137.671 81.8333 137.671 82.916C137.671 84.9133 137.923 86.416 138.427 87.424C138.931 88.4133 139.883 88.908 141.283 88.908C141.787 88.908 142.244 88.852 142.655 88.74C143.066 88.6093 143.439 88.4507 143.775 88.264C144.111 88.0773 144.41 87.872 144.671 87.648C144.932 87.424 145.156 87.2093 145.343 87.004V77.736ZM145.875 90C145.595 90 145.455 89.86 145.455 89.58L145.399 88.46C144.951 88.908 144.372 89.328 143.663 89.72C142.972 90.0933 142.086 90.28 141.003 90.28C140.051 90.28 139.258 90.1027 138.623 89.748C137.988 89.3747 137.475 88.8707 137.083 88.236C136.71 87.5827 136.448 86.808 136.299 85.912C136.15 85.016 136.075 84.0267 136.075 82.944C136.075 80.312 136.56 78.4267 137.531 77.288C138.502 76.1493 139.911 75.58 141.759 75.58C142.692 75.58 143.439 75.6827 143.999 75.888C144.578 76.0933 145.026 76.2707 145.343 76.42V69.896H146.491C146.771 69.896 146.911 70.036 146.911 70.316V90H145.875Z" fill="#059669"/>
</svg>
