<svg width="384" height="128" viewBox="0 0 384 128" fill="none" xmlns="http://www.w3.org/2000/svg">
<path d="M95 15.5C97.4853 15.5 99.5 17.5147 99.5 20V108C99.5 110.485 97.4853 112.5 95 112.5H32C29.5147 112.5 27.5 110.485 27.5 108V34.6211L46.6211 15.5H95Z" fill="#FFF1E2" stroke="black" stroke-width="3"/>
<path d="M46.5 67L46.5 56C46.5 55.1716 47.1716 54.5 48 54.5H56.5V46C56.5 45.1716 57.1716 44.5 58 44.5L69 44.5C69.8284 44.5 70.5 45.1716 70.5 46V54.5L79 54.5C79.8284 54.5 80.5 55.1716 80.5 56V67C80.5 67.8284 79.8284 68.5 79 68.5H70.5V77C70.5 77.8284 69.8284 78.5 69 78.5H58C57.1716 78.5 56.5 77.8284 56.5 77V68.5H48C47.1716 68.5 46.5 67.8284 46.5 67Z" fill="#10B981" stroke="#059669"/>
<path d="M54.5 29.5H89.5M38.5 90.5H89.5M38.5 102.5H89.5" stroke="black" stroke-width="3" stroke-linecap="round"/>
<path d="M128.84 86H121.58C120.82 86 120.28 85.86 119.96 85.58C119.68 85.26 119.54 84.82 119.54 84.26C119.54 83.86 119.64 83.08 119.84 81.92C120.08 80.76 120.32 79.54 120.56 78.26L127.28 45.02C129.04 44.58 130.86 44.26 132.74 44.06C134.66 43.86 136.48 43.76 138.2 43.76C139.92 43.76 141.6 43.94 143.24 44.3C144.88 44.66 146.34 45.28 147.62 46.16C148.9 47.04 149.92 48.22 150.68 49.7C151.48 51.18 151.88 53.04 151.88 55.28C151.88 57.36 151.56 59.4 150.92 61.4C150.28 63.4 149.3 65.2 147.98 66.8C146.7 68.36 145.1 69.64 143.18 70.64C141.26 71.6 139.02 72.08 136.46 72.08C135.5 72.08 134.58 72.04 133.7 71.96C132.86 71.84 132.2 71.72 131.72 71.6L128.84 86ZM133.22 63.86C134.02 64.02 134.8 64.1 135.56 64.1C136.76 64.1 137.76 63.84 138.56 63.32C139.4 62.8 140.06 62.14 140.54 61.34C141.06 60.5 141.42 59.58 141.62 58.58C141.86 57.54 141.98 56.54 141.98 55.58C141.98 52.78 140.48 51.38 137.48 51.38C137.04 51.38 136.66 51.42 136.34 51.5C136.02 51.54 135.8 51.58 135.68 51.62L133.22 63.86ZM159.799 75.8C159.199 77.64 158.619 79.46 158.059 81.26C157.539 83.06 157.099 84.64 156.739 86H149.659C148.859 86 148.299 85.86 147.979 85.58C147.659 85.3 147.499 84.94 147.499 84.5C147.499 83.98 147.559 83.48 147.679 83C147.799 82.52 147.959 82 148.159 81.44C150.359 74.8 152.739 68.48 155.299 62.48C157.899 56.48 160.779 50.46 163.939 44.42H173.539C174.339 44.42 174.939 44.62 175.339 45.02C175.739 45.38 176.019 45.94 176.179 46.7C176.419 48.06 176.639 49.62 176.839 51.38C177.079 53.14 177.259 55.02 177.379 57.02C177.539 59.02 177.659 61.12 177.739 63.32C177.859 65.52 177.919 67.72 177.919 69.92C177.919 72.56 177.879 75.2 177.799 77.84C177.719 80.48 177.599 83.2 177.439 86H169.759C169.039 86 168.539 85.84 168.259 85.52C167.979 85.16 167.839 84.66 167.839 84.02L167.899 83C167.939 82.52 167.999 81.94 168.079 81.26C168.159 80.54 168.219 79.84 168.259 79.16C168.339 78.48 168.399 77.84 168.439 77.24C168.479 76.6 168.499 76.12 168.499 75.8H159.799ZM168.619 51.5C167.099 54.78 165.819 57.84 164.779 60.68C163.779 63.48 162.899 66.04 162.139 68.36H168.799C168.879 67.56 168.939 66.64 168.979 65.6C169.019 64.52 169.039 63.3 169.039 61.94C169.039 60.5 168.999 58.86 168.919 57.02C168.879 55.14 168.779 53.3 168.619 51.5ZM191.594 86H184.334C183.574 86 183.034 85.86 182.714 85.58C182.434 85.26 182.294 84.82 182.294 84.26C182.294 83.86 182.394 83.08 182.594 81.92C182.834 80.76 183.074 79.54 183.314 78.26L190.034 45.02C191.794 44.58 193.614 44.26 195.494 44.06C197.414 43.86 199.234 43.76 200.954 43.76C202.674 43.76 204.354 43.94 205.994 44.3C207.634 44.66 209.094 45.28 210.374 46.16C211.654 47.04 212.674 48.22 213.434 49.7C214.234 51.18 214.634 53.04 214.634 55.28C214.634 57.36 214.314 59.4 213.674 61.4C213.034 63.4 212.054 65.2 210.734 66.8C209.454 68.36 207.854 69.64 205.934 70.64C204.014 71.6 201.774 72.08 199.214 72.08C198.254 72.08 197.334 72.04 196.454 71.96C195.614 71.84 194.954 71.72 194.474 71.6L191.594 86ZM195.974 63.86C196.774 64.02 197.554 64.1 198.314 64.1C199.514 64.1 200.514 63.84 201.314 63.32C202.154 62.8 202.814 62.14 203.294 61.34C203.814 60.5 204.174 59.58 204.374 58.58C204.614 57.54 204.734 56.54 204.734 55.58C204.734 52.78 203.234 51.38 200.234 51.38C199.794 51.38 199.414 51.42 199.094 51.5C198.774 51.54 198.554 51.58 198.434 51.62L195.974 63.86ZM222.612 44.42H244.152C245.392 44.42 246.012 44.94 246.012 45.98C246.012 46.18 245.972 46.54 245.892 47.06C245.812 47.54 245.732 48.02 245.652 48.5L244.872 52.7H230.712L229.212 60.62H239.232C240.472 60.62 241.092 61.14 241.092 62.18C241.092 62.38 241.052 62.74 240.972 63.26C240.892 63.74 240.812 64.22 240.732 64.7L239.892 68.9H227.532L225.852 77.72H238.032C239.272 77.72 239.892 78.24 239.892 79.28C239.892 79.48 239.852 79.84 239.772 80.36C239.692 80.84 239.612 81.32 239.532 81.8L238.752 86H217.032C216.272 86 215.732 85.86 215.412 85.58C215.132 85.26 214.992 84.82 214.992 84.26C214.992 83.86 215.112 83.08 215.352 81.92C215.592 80.76 215.812 79.54 216.012 78.26L222.612 44.42ZM254.465 86H247.145C245.825 86 245.165 85.4 245.165 84.2C245.165 84.08 245.185 83.86 245.225 83.54C245.305 83.18 245.365 82.84 245.405 82.52C245.485 82.16 245.545 81.84 245.585 81.56C245.665 81.28 245.705 81.1 245.705 81.02L252.905 45.02C254.465 44.62 256.145 44.32 257.945 44.12C259.745 43.88 261.545 43.76 263.345 43.76C265.465 43.76 267.385 43.96 269.105 44.36C270.865 44.76 272.365 45.42 273.605 46.34C274.845 47.26 275.805 48.46 276.485 49.94C277.165 51.38 277.505 53.14 277.505 55.22C277.505 58.22 276.765 60.88 275.285 63.2C273.845 65.48 271.865 67.28 269.345 68.6C269.785 69.56 270.245 70.78 270.725 72.26C271.245 73.74 271.725 75.3 272.165 76.94C272.605 78.54 272.985 80.14 273.305 81.74C273.625 83.34 273.825 84.76 273.905 86H265.925C265.125 86 264.525 85.86 264.125 85.58C263.725 85.3 263.485 84.78 263.405 84.02C263.125 81.62 262.745 79.24 262.265 76.88C261.785 74.52 261.245 72.52 260.645 70.88H257.465L254.465 86ZM258.965 63.32H262.025C262.625 63.32 263.245 63.16 263.885 62.84C264.525 62.52 265.125 62.06 265.685 61.46C266.245 60.82 266.705 60.04 267.065 59.12C267.425 58.16 267.605 57.08 267.605 55.88C267.605 52.88 266.165 51.38 263.285 51.38C262.845 51.38 262.445 51.42 262.085 51.5C261.725 51.54 261.465 51.58 261.305 51.62L258.965 63.32Z" fill="#10B981"/>
<path d="M310.25 85.25C309.983 83.65 309.683 82.0333 309.35 80.4C309.017 78.7333 308.65 77.0333 308.25 75.3H294.45C294.017 77.1 293.617 78.8833 293.25 80.65C292.917 82.4167 292.6 84.2 292.3 86H290.3C289.733 86 289.483 85.75 289.55 85.25C290.217 81.2167 291.017 77.4167 291.95 73.85C292.883 70.25 293.833 67 294.8 64.1C295.767 61.1667 296.7 58.6167 297.6 56.45C298.5 54.25 299.267 52.55 299.9 51.35H302.3C302.533 51.35 302.717 51.3833 302.85 51.45C303.017 51.5167 303.183 51.7167 303.35 52.05C303.983 53.4167 304.75 55.2333 305.65 57.5C306.583 59.7667 307.517 62.3833 308.45 65.35C309.383 68.2833 310.283 71.5 311.15 75C312.017 78.5 312.75 82.1667 313.35 86H311.05C310.617 86 310.35 85.75 310.25 85.25ZM301.35 54.25C300.05 57.2167 298.883 60.2333 297.85 63.3C296.817 66.3667 295.883 69.5167 295.05 72.75H307.6C306.8 69.5833 305.867 66.45 304.8 63.35C303.767 60.2167 302.617 57.1833 301.35 54.25ZM318.355 60.85H320.405C320.905 60.85 321.155 61.1 321.155 61.6V86H319.105C318.605 86 318.355 85.75 318.355 85.25V60.85ZM319.805 55.95C319.105 55.95 318.589 55.8 318.255 55.5C317.922 55.2 317.755 54.6667 317.755 53.9C317.755 53.1333 317.922 52.6 318.255 52.3C318.589 52 319.105 51.85 319.805 51.85C320.505 51.85 321.022 52 321.355 52.3C321.689 52.6 321.855 53.1333 321.855 53.9C321.855 54.6667 321.689 55.2 321.355 55.5C321.022 55.8 320.505 55.95 319.805 55.95ZM343.97 64.1C343.103 63.7 342.187 63.3667 341.22 63.1C340.287 62.8333 339.187 62.7 337.92 62.7C336.553 62.7 335.387 62.9 334.42 63.3C333.453 63.6667 332.653 64.2833 332.02 65.15C331.42 65.9833 330.97 67.0833 330.67 68.45C330.403 69.7833 330.27 71.4167 330.27 73.35C330.27 76.9167 330.72 79.6 331.62 81.4C332.52 83.1667 334.22 84.05 336.72 84.05C337.62 84.05 338.437 83.95 339.17 83.75C339.903 83.5167 340.57 83.2333 341.17 82.9C341.77 82.5667 342.303 82.2 342.77 81.8C343.237 81.4 343.637 81.0167 343.97 80.65V64.1ZM344.92 86C344.42 86 344.17 85.75 344.17 85.25L344.07 83.25C343.27 84.05 342.237 84.8 340.97 85.5C339.737 86.1667 338.153 86.5 336.22 86.5C334.52 86.5 333.103 86.1833 331.97 85.55C330.837 84.8833 329.92 83.9833 329.22 82.85C328.553 81.6833 328.087 80.3 327.82 78.7C327.553 77.1 327.42 75.3333 327.42 73.4C327.42 68.7 328.287 65.3333 330.02 63.3C331.753 61.2667 334.27 60.25 337.57 60.25C339.237 60.25 340.57 60.4333 341.57 60.8C342.603 61.1667 343.403 61.4833 343.97 61.75V50.1H346.02C346.52 50.1 346.77 50.35 346.77 50.85V86H344.92Z" fill="#059669"/>
</svg>
